<svg viewBox="0 0 1000 1000" xmlns="http://www.w3.org/2000/svg">
  <g id="background">
    <!-- Sky gradient using layered rects -->
    <rect x="0" y="0" width="1000" height="400" fill="#38bdf8" />
    <rect x="0" y="400" width="1000" height="250" fill="#7dd3fc" opacity="0.5" />
    <!-- Ground -->
    <rect x="0" y="620" width="1000" height="380" fill="#166534" />
    <!-- Ground highlight -->
    <rect x="0" y="620" width="1000" height="60" fill="#15803d" />
  </g>
  <g id="environment">
    <!-- Clouds -->
    <ellipse cx="150" cy="100" rx="75" ry="30" fill="#f1f5f9" opacity="0.8" />
    <ellipse cx="210" cy="90" rx="55" ry="25" fill="#f1f5f9" opacity="0.8" />
    <ellipse cx="700" cy="130" rx="80" ry="28" fill="#f1f5f9" opacity="0.7" />
    <ellipse cx="770" cy="120" rx="60" ry="24" fill="#f1f5f9" opacity="0.7" />
    <!-- Distant hills -->
    <ellipse cx="250" cy="620" rx="300" ry="70" fill="#15803d" />
    <ellipse cx="700" cy="620" rx="350" ry="80" fill="#15803d" />

    <!-- === BACK ROW TREES (small, y~440-520) === -->
    <!-- Back tree 1 -->
    <rect x="62" y="460" width="16" height="70" fill="#78350f" stroke="#0f172a" stroke-width="2" />
    <circle cx="70" cy="440" r="35" fill="#166534" stroke="#0f172a" stroke-width="3" />
    <circle cx="52" cy="455" r="28" fill="#15803d" stroke="#0f172a" stroke-width="2" />
    <circle cx="88" cy="455" r="28" fill="#15803d" stroke="#0f172a" stroke-width="2" />
    <!-- Back tree 2 -->
    <rect x="172" y="470" width="16" height="65" fill="#78350f" stroke="#0f172a" stroke-width="2" />
    <circle cx="180" cy="448" r="38" fill="#166534" stroke="#0f172a" stroke-width="3" />
    <circle cx="160" cy="462" r="30" fill="#15803d" stroke="#0f172a" stroke-width="2" />
    <circle cx="200" cy="465" r="26" fill="#15803d" stroke="#0f172a" stroke-width="2" />
    <!-- Back tree 3 -->
    <rect x="292" y="455" width="16" height="72" fill="#78350f" stroke="#0f172a" stroke-width="2" />
    <circle cx="300" cy="432" r="40" fill="#166534" stroke="#0f172a" stroke-width="3" />
    <circle cx="278" cy="448" r="30" fill="#15803d" stroke="#0f172a" stroke-width="2" />
    <circle cx="322" cy="450" r="28" fill="#15803d" stroke="#0f172a" stroke-width="2" />
    <!-- Back tree 4 -->
    <rect x="412" y="465" width="16" height="68" fill="#78350f" stroke="#0f172a" stroke-width="2" />
    <circle cx="420" cy="442" r="36" fill="#166534" stroke="#0f172a" stroke-width="3" />
    <circle cx="402" cy="458" r="28" fill="#15803d" stroke="#0f172a" stroke-width="2" />
    <circle cx="440" cy="456" r="26" fill="#15803d" stroke="#0f172a" stroke-width="2" />
    <!-- Back tree 5 -->
    <rect x="532" y="458" width="16" height="70" fill="#78350f" stroke="#0f172a" stroke-width="2" />
    <circle cx="540" cy="435" r="38" fill="#166534" stroke="#0f172a" stroke-width="3" />
    <circle cx="520" cy="452" r="30" fill="#15803d" stroke="#0f172a" stroke-width="2" />
    <circle cx="560" cy="450" r="28" fill="#15803d" stroke="#0f172a" stroke-width="2" />
    <!-- Back tree 6 -->
    <rect x="652" y="462" width="16" height="66" fill="#78350f" stroke="#0f172a" stroke-width="2" />
    <circle cx="660" cy="440" r="36" fill="#166534" stroke="#0f172a" stroke-width="3" />
    <circle cx="642" cy="455" r="28" fill="#15803d" stroke="#0f172a" stroke-width="2" />
    <circle cx="680" cy="453" r="27" fill="#15803d" stroke="#0f172a" stroke-width="2" />
    <!-- Back tree 7 -->
    <rect x="772" y="468" width="16" height="64" fill="#78350f" stroke="#0f172a" stroke-width="2" />
    <circle cx="780" cy="446" r="34" fill="#166534" stroke="#0f172a" stroke-width="3" />
    <circle cx="762" cy="460" r="26" fill="#15803d" stroke="#0f172a" stroke-width="2" />
    <circle cx="798" cy="458" r="28" fill="#15803d" stroke="#0f172a" stroke-width="2" />
    <!-- Back tree 8 -->
    <rect x="892" y="460" width="16" height="68" fill="#78350f" stroke="#0f172a" stroke-width="2" />
    <circle cx="900" cy="438" r="36" fill="#166534" stroke="#0f172a" stroke-width="3" />
    <circle cx="882" cy="452" r="28" fill="#15803d" stroke="#0f172a" stroke-width="2" />
    <circle cx="918" cy="454" r="26" fill="#15803d" stroke="#0f172a" stroke-width="2" />

    <!-- === MID ROW TREES (medium, y~530-600) === -->
    <!-- Mid tree 1 -->
    <rect x="28" y="545" width="22" height="85" fill="#92400e" stroke="#0f172a" stroke-width="3" />
    <circle cx="39" cy="510" r="50" fill="#15803d" stroke="#0f172a" stroke-width="4" />
    <circle cx="14" cy="530" r="38" fill="#166534" stroke="#0f172a" stroke-width="3" />
    <circle cx="64" cy="528" r="36" fill="#166534" stroke="#0f172a" stroke-width="3" />
    <!-- Mid tree 2 -->
    <rect x="168" y="550" width="22" height="80" fill="#92400e" stroke="#0f172a" stroke-width="3" />
    <circle cx="179" cy="518" r="48" fill="#15803d" stroke="#0f172a" stroke-width="4" />
    <circle cx="155" cy="536" r="36" fill="#166534" stroke="#0f172a" stroke-width="3" />
    <circle cx="203" cy="534" r="34" fill="#166534" stroke="#0f172a" stroke-width="3" />
    <!-- Mid tree 3 -->
    <rect x="328" y="540" width="22" height="88" fill="#92400e" stroke="#0f172a" stroke-width="3" />
    <circle cx="339" cy="505" r="52" fill="#15803d" stroke="#0f172a" stroke-width="4" />
    <circle cx="312" cy="525" r="40" fill="#166534" stroke="#0f172a" stroke-width="3" />
    <circle cx="366" cy="527" r="36" fill="#166534" stroke="#0f172a" stroke-width="3" />
    <!-- Mid tree 4 -->
    <rect x="489" y="548" width="22" height="82" fill="#92400e" stroke="#0f172a" stroke-width="3" />
    <circle cx="500" cy="514" r="50" fill="#15803d" stroke="#0f172a" stroke-width="4" />
    <circle cx="475" cy="532" r="38" fill="#166534" stroke="#0f172a" stroke-width="3" />
    <circle cx="525" cy="534" r="36" fill="#166534" stroke="#0f172a" stroke-width="3" />
    <!-- Mid tree 5 -->
    <rect x="639" y="542" width="22" height="86" fill="#92400e" stroke="#0f172a" stroke-width="3" />
    <circle cx="650" cy="508" r="50" fill="#15803d" stroke="#0f172a" stroke-width="4" />
    <circle cx="625" cy="528" r="38" fill="#166534" stroke="#0f172a" stroke-width="3" />
    <circle cx="675" cy="526" r="36" fill="#166534" stroke="#0f172a" stroke-width="3" />
    <!-- Mid tree 6 -->
    <rect x="808" y="546" width="22" height="84" fill="#92400e" stroke="#0f172a" stroke-width="3" />
    <circle cx="819" cy="512" r="48" fill="#15803d" stroke="#0f172a" stroke-width="4" />
    <circle cx="795" cy="530" r="36" fill="#166534" stroke="#0f172a" stroke-width="3" />
    <circle cx="843" cy="532" r="34" fill="#166534" stroke="#0f172a" stroke-width="3" />
    <!-- Mid tree 7 -->
    <rect x="938" y="550" width="22" height="80" fill="#92400e" stroke="#0f172a" stroke-width="3" />
    <circle cx="949" cy="516" r="46" fill="#15803d" stroke="#0f172a" stroke-width="4" />
    <circle cx="928" cy="534" r="34" fill="#166534" stroke="#0f172a" stroke-width="3" />
    <circle cx="970" cy="532" r="32" fill="#166534" stroke="#0f172a" stroke-width="3" />

    <!-- === FRONT ROW TREES (large, y~620-700) === -->
    <!-- Front tree 1 -->
    <rect x="70" y="620" width="28" height="110" fill="#a16207" stroke="#0f172a" stroke-width="4" />
    <circle cx="84" cy="575" r="65" fill="#16a34a" stroke="#0f172a" stroke-width="5" />
    <circle cx="50" cy="600" r="48" fill="#15803d" stroke="#0f172a" stroke-width="4" />
    <circle cx="118" cy="598" r="46" fill="#15803d" stroke="#0f172a" stroke-width="4" />
    <!-- Front tree 2 -->
    <rect x="236" y="625" width="28" height="105" fill="#a16207" stroke="#0f172a" stroke-width="4" />
    <circle cx="250" cy="580" r="62" fill="#16a34a" stroke="#0f172a" stroke-width="5" />
    <circle cx="218" cy="605" r="46" fill="#15803d" stroke="#0f172a" stroke-width="4" />
    <circle cx="282" cy="602" r="44" fill="#15803d" stroke="#0f172a" stroke-width="4" />
    <!-- Front tree 3 -->
    <rect x="436" y="618" width="28" height="112" fill="#a16207" stroke="#0f172a" stroke-width="4" />
    <circle cx="450" cy="572" r="66" fill="#16a34a" stroke="#0f172a" stroke-width="5" />
    <circle cx="416" cy="598" r="50" fill="#15803d" stroke="#0f172a" stroke-width="4" />
    <circle cx="484" cy="596" r="48" fill="#15803d" stroke="#0f172a" stroke-width="4" />
    <!-- Front tree 4 -->
    <rect x="616" y="622" width="28" height="108" fill="#a16207" stroke="#0f172a" stroke-width="4" />
    <circle cx="630" cy="576" r="64" fill="#16a34a" stroke="#0f172a" stroke-width="5" />
    <circle cx="598" cy="600" r="48" fill="#15803d" stroke="#0f172a" stroke-width="4" />
    <circle cx="662" cy="598" r="46" fill="#15803d" stroke="#0f172a" stroke-width="4" />
    <!-- Front tree 5 -->
    <rect x="826" y="620" width="28" height="110" fill="#a16207" stroke="#0f172a" stroke-width="4" />
    <circle cx="840" cy="574" r="64" fill="#16a34a" stroke="#0f172a" stroke-width="5" />
    <circle cx="808" cy="598" r="48" fill="#15803d" stroke="#0f172a" stroke-width="4" />
    <circle cx="872" cy="600" r="44" fill="#15803d" stroke="#0f172a" stroke-width="4" />
  </g>
  <g id="foreground">
    <!-- Grass tufts -->
    <path d="M 100,760 Q 105,740 110,760" fill="none" stroke="#16a34a" stroke-width="3" />
    <path d="M 110,760 Q 117,735 122,760" fill="none" stroke="#16a34a" stroke-width="3" />
    <path d="M 300,780 Q 305,758 310,780" fill="none" stroke="#16a34a" stroke-width="3" />
    <path d="M 310,780 Q 318,755 324,780" fill="none" stroke="#16a34a" stroke-width="3" />
    <path d="M 500,770 Q 505,748 510,770" fill="none" stroke="#16a34a" stroke-width="3" />
    <path d="M 510,770 Q 518,745 524,770" fill="none" stroke="#16a34a" stroke-width="3" />
    <path d="M 700,785 Q 705,762 710,785" fill="none" stroke="#16a34a" stroke-width="3" />
    <path d="M 710,785 Q 718,758 724,785" fill="none" stroke="#16a34a" stroke-width="3" />
    <path d="M 880,775 Q 885,752 890,775" fill="none" stroke="#16a34a" stroke-width="3" />
    <path d="M 890,775 Q 898,748 904,775" fill="none" stroke="#16a34a" stroke-width="3" />
    <!-- Small mushrooms -->
    <rect x="195" y="740" width="6" height="14" fill="#f1f5f9" stroke="#0f172a" stroke-width="2" />
    <ellipse cx="198" cy="738" rx="12" ry="8" fill="#dc2626" stroke="#0f172a" stroke-width="2" />
    <circle cx="194" cy="735" r="2" fill="#f1f5f9" />
    <circle cx="202" cy="736" r="2" fill="#f1f5f9" />
    <rect x="745" y="750" width="6" height="12" fill="#f1f5f9" stroke="#0f172a" stroke-width="2" />
    <ellipse cx="748" cy="748" rx="10" ry="7" fill="#dc2626" stroke="#0f172a" stroke-width="2" />
    <circle cx="744" cy="746" r="2" fill="#f1f5f9" />
    <circle cx="752" cy="745" r="2" fill="#f1f5f9" />
  </g>
</svg>
