<svg viewBox="0 0 1000 1000" xmlns="http://www.w3.org/2000/svg">
  <defs>
    <linearGradient id="bg" x1="0" y1="0" x2="0" y2="1">
      <stop offset="0%" stop-color="#05050f"/>
      <stop offset="100%" stop-color="#0a0a1a"/>
    </linearGradient>
    <linearGradient id="road" x1="0" y1="0" x2="0" y2="1">
      <stop offset="0%" stop-color="#0e0e18"/>
      <stop offset="100%" stop-color="#080812"/>
    </linearGradient>
    <!-- Neon glow filters -->
    <filter id="glow-pink" x="-50%" y="-50%" width="200%" height="200%">
      <feGaussianBlur stdDeviation="6" result="blur"/>
      <feMerge><feMergeNode in="blur"/><feMergeNode in="blur"/><feMergeNode in="SourceGraphic"/></feMerge>
    </filter>
    <filter id="glow-cyan" x="-50%" y="-50%" width="200%" height="200%">
      <feGaussianBlur stdDeviation="5" result="blur"/>
      <feMerge><feMergeNode in="blur"/><feMergeNode in="blur"/><feMergeNode in="SourceGraphic"/></feMerge>
    </filter>
    <filter id="glow-purple" x="-50%" y="-50%" width="200%" height="200%">
      <feGaussianBlur stdDeviation="5" result="blur"/>
      <feMerge><feMergeNode in="blur"/><feMergeNode in="blur"/><feMergeNode in="SourceGraphic"/></feMerge>
    </filter>
    <filter id="glow-yellow" x="-50%" y="-50%" width="200%" height="200%">
      <feGaussianBlur stdDeviation="4" result="blur"/>
      <feMerge><feMergeNode in="blur"/><feMergeNode in="blur"/><feMergeNode in="SourceGraphic"/></feMerge>
    </filter>
    <filter id="glow-green" x="-50%" y="-50%" width="200%" height="200%">
      <feGaussianBlur stdDeviation="4" result="blur"/>
      <feMerge><feMergeNode in="blur"/><feMergeNode in="blur"/><feMergeNode in="SourceGraphic"/></feMerge>
    </filter>
    <filter id="glow-soft" x="-50%" y="-50%" width="200%" height="200%">
      <feGaussianBlur stdDeviation="3" result="blur"/>
      <feMerge><feMergeNode in="blur"/><feMergeNode in="SourceGraphic"/></feMerge>
    </filter>
    <filter id="glow-wide" x="-80%" y="-80%" width="260%" height="260%">
      <feGaussianBlur stdDeviation="12" result="blur"/>
      <feMerge><feMergeNode in="blur"/><feMergeNode in="blur"/><feMergeNode in="blur"/><feMergeNode in="SourceGraphic"/></feMerge>
    </filter>
    <radialGradient id="puddle-pink" cx="50%" cy="50%" r="50%">
      <stop offset="0%" stop-color="#ff2a6d" stop-opacity="0.15"/>
      <stop offset="100%" stop-color="#ff2a6d" stop-opacity="0"/>
    </radialGradient>
    <radialGradient id="puddle-cyan" cx="50%" cy="50%" r="50%">
      <stop offset="0%" stop-color="#05d9e8" stop-opacity="0.12"/>
      <stop offset="100%" stop-color="#05d9e8" stop-opacity="0"/>
    </radialGradient>
    <radialGradient id="puddle-purple" cx="50%" cy="50%" r="50%">
      <stop offset="0%" stop-color="#d300c5" stop-opacity="0.1"/>
      <stop offset="100%" stop-color="#d300c5" stop-opacity="0"/>
    </radialGradient>
  </defs>

  <!-- Dark background -->
  <rect width="1000" height="1000" fill="url(#bg)"/>

  <!-- === BUILDING SILHOUETTES (dark, no fill detail — neon does the talking) === -->
  <g id="buildings" fill="#08080f" stroke="#151525" stroke-width="1">
    <!-- Far left -->
    <rect x="0" y="220" width="70" height="480"/>
    <rect x="75" y="300" width="55" height="400"/>
    <!-- Left cluster -->
    <rect x="140" y="180" width="90" height="520"/>
    <rect x="155" y="160" width="55" height="25"/>
    <rect x="178" y="130" width="10" height="32"/>
    <!-- Center left -->
    <rect x="250" y="340" width="80" height="360"/>
    <rect x="250" y="330" width="80" height="14" fill="#0c0c16"/>
    <!-- Center tower -->
    <rect x="360" y="140" width="100" height="560"/>
    <polygon points="360,140 410,70 460,140" fill="#0a0a14"/>
    <line x1="410" y1="70" x2="410" y2="40" stroke="#151525" stroke-width="2"/>
    <!-- Center right -->
    <rect x="490" y="280" width="90" height="420"/>
    <rect x="490" y="268" width="90" height="16" fill="#0c0c16"/>
    <!-- Right cluster -->
    <rect x="610" y="200" width="70" height="500"/>
    <rect x="620" y="182" width="50" height="22"/>
    <rect x="640" y="160" width="12" height="24"/>
    <!-- Right -->
    <rect x="710" y="320" width="100" height="380"/>
    <rect x="725" y="280" width="70" height="44" fill="#0a0a14"/>
    <rect x="745" y="260" width="30" height="24" fill="#08080f"/>
    <!-- Far right -->
    <rect x="840" y="240" width="80" height="460"/>
    <rect x="855" y="222" width="50" height="22"/>
    <line x1="880" y1="222" x2="880" y2="198" stroke="#151525" stroke-width="2"/>
    <rect x="935" y="320" width="65" height="380"/>
  </g>

  <!-- === NEON WINDOW STRIPS (glowing lines on buildings) === -->
  <!-- Pink horizontal neon strips -->
  <g stroke="#ff2a6d" stroke-width="2" filter="url(#glow-pink)" opacity="0.9">
    <line x1="145" y1="220" x2="225" y2="220"/>
    <line x1="145" y1="280" x2="225" y2="280"/>
    <line x1="145" y1="340" x2="225" y2="340"/>
    <line x1="145" y1="400" x2="225" y2="400"/>
    <line x1="365" y1="200" x2="455" y2="200"/>
    <line x1="365" y1="260" x2="455" y2="260"/>
    <line x1="365" y1="380" x2="455" y2="380"/>
    <line x1="365" y1="440" x2="455" y2="440"/>
    <line x1="845" y1="300" x2="915" y2="300"/>
    <line x1="845" y1="360" x2="915" y2="360"/>
    <line x1="845" y1="420" x2="915" y2="420"/>
  </g>

  <!-- Cyan horizontal neon strips -->
  <g stroke="#05d9e8" stroke-width="2" filter="url(#glow-cyan)" opacity="0.85">
    <line x1="5" y1="280" x2="65" y2="280"/>
    <line x1="5" y1="350" x2="65" y2="350"/>
    <line x1="5" y1="420" x2="65" y2="420"/>
    <line x1="495" y1="320" x2="575" y2="320"/>
    <line x1="495" y1="380" x2="575" y2="380"/>
    <line x1="495" y1="440" x2="575" y2="440"/>
    <line x1="495" y1="500" x2="575" y2="500"/>
    <line x1="615" y1="260" x2="675" y2="260"/>
    <line x1="615" y1="320" x2="675" y2="320"/>
    <line x1="615" y1="380" x2="675" y2="380"/>
    <line x1="615" y1="440" x2="675" y2="440"/>
  </g>

  <!-- Purple window dots -->
  <g fill="#d300c5" filter="url(#glow-soft)" opacity="0.7">
    <rect x="260" y="365" width="6" height="8" rx="1"/>
    <rect x="275" y="365" width="6" height="8" rx="1"/>
    <rect x="300" y="365" width="6" height="8" rx="1"/>
    <rect x="260" y="395" width="6" height="8" rx="1"/>
    <rect x="290" y="395" width="6" height="8" rx="1"/>
    <rect x="315" y="395" width="6" height="8" rx="1"/>
    <rect x="275" y="425" width="6" height="8" rx="1"/>
    <rect x="300" y="425" width="6" height="8" rx="1"/>
    <rect x="260" y="455" width="6" height="8" rx="1"/>
    <rect x="290" y="455" width="6" height="8" rx="1"/>
    <rect x="315" y="455" width="6" height="8" rx="1"/>
    <rect x="720" y="345" width="6" height="8" rx="1"/>
    <rect x="740" y="345" width="6" height="8" rx="1"/>
    <rect x="770" y="345" width="6" height="8" rx="1"/>
    <rect x="790" y="345" width="6" height="8" rx="1"/>
    <rect x="730" y="375" width="6" height="8" rx="1"/>
    <rect x="760" y="375" width="6" height="8" rx="1"/>
    <rect x="800" y="375" width="6" height="8" rx="1"/>
    <rect x="720" y="405" width="6" height="8" rx="1"/>
    <rect x="750" y="405" width="6" height="8" rx="1"/>
    <rect x="780" y="405" width="6" height="8" rx="1"/>
    <rect x="740" y="435" width="6" height="8" rx="1"/>
    <rect x="770" y="435" width="6" height="8" rx="1"/>
    <rect x="800" y="435" width="6" height="8" rx="1"/>
  </g>

  <!-- Yellow scattered windows -->
  <g fill="#ffe44d" filter="url(#glow-soft)" opacity="0.6">
    <rect x="82" y="330" width="5" height="7" rx="1"/>
    <rect x="95" y="360" width="5" height="7" rx="1"/>
    <rect x="82" y="390" width="5" height="7" rx="1"/>
    <rect x="108" y="420" width="5" height="7" rx="1"/>
    <rect x="95" y="450" width="5" height="7" rx="1"/>
    <rect x="940" y="350" width="5" height="7" rx="1"/>
    <rect x="960" y="380" width="5" height="7" rx="1"/>
    <rect x="945" y="410" width="5" height="7" rx="1"/>
    <rect x="965" y="440" width="5" height="7" rx="1"/>
    <rect x="940" y="470" width="5" height="7" rx="1"/>
  </g>

  <!-- Vertical neon accents on center tower -->
  <g stroke="#ff2a6d" stroke-width="1.5" filter="url(#glow-pink)" opacity="0.5">
    <line x1="360" y1="145" x2="360" y2="700"/>
    <line x1="460" y1="145" x2="460" y2="700"/>
  </g>
  <g stroke="#05d9e8" stroke-width="1" filter="url(#glow-cyan)" opacity="0.3">
    <line x1="410" y1="75" x2="410" y2="700"/>
  </g>

  <!-- Antenna blink lights -->
  <circle cx="183" cy="130" r="3" fill="#ff2a6d" filter="url(#glow-pink)">
    <animate attributeName="opacity" values="1;0.2;1" dur="1.5s" repeatCount="indefinite"/>
  </circle>
  <circle cx="410" cy="38" r="4" fill="#05d9e8" filter="url(#glow-cyan)">
    <animate attributeName="opacity" values="0.3;1;0.3" dur="2s" repeatCount="indefinite"/>
  </circle>
  <circle cx="646" cy="158" r="3" fill="#d300c5" filter="url(#glow-purple)">
    <animate attributeName="opacity" values="1;0.15;1" dur="1.8s" repeatCount="indefinite"/>
  </circle>
  <circle cx="880" cy="196" r="3" fill="#ff2a6d" filter="url(#glow-pink)">
    <animate attributeName="opacity" values="0.2;1;0.2" dur="2.2s" repeatCount="indefinite"/>
  </circle>

  <!-- === NEON SIGNS === -->

  <!-- Large neon sign - "CLUB" on left building -->
  <g transform="translate(155, 520)" filter="url(#glow-pink)">
    <text font-family="Arial, Helvetica, sans-serif" font-size="28" font-weight="bold" fill="#ff2a6d" letter-spacing="6">CLUB</text>
  </g>
  <!-- Sign underline -->
  <line x1="150" y1="535" x2="260" y2="535" stroke="#ff2a6d" stroke-width="2" filter="url(#glow-pink)" opacity="0.8"/>

  <!-- Neon sign - Japanese-style characters on center-right -->
  <g transform="translate(500, 490)" filter="url(#glow-cyan)">
    <text font-family="Arial, Helvetica, sans-serif" font-size="22" font-weight="bold" fill="#05d9e8" letter-spacing="4">NEON</text>
  </g>
  <rect x="495" y="502" width="80" height="2" fill="#05d9e8" filter="url(#glow-cyan)" opacity="0.7"/>

  <!-- Neon sign - "BAR" on right -->
  <g transform="translate(725, 500)" filter="url(#glow-purple)">
    <text font-family="Arial, Helvetica, sans-serif" font-size="24" font-weight="bold" fill="#d300c5" letter-spacing="5">BAR</text>
  </g>
  <line x1="720" y1="514" x2="800" y2="514" stroke="#d300c5" stroke-width="2" filter="url(#glow-purple)" opacity="0.7"/>

  <!-- Neon sign - "OPEN" small on far left -->
  <g transform="translate(12, 480)" filter="url(#glow-green)">
    <text font-family="Arial, Helvetica, sans-serif" font-size="14" font-weight="bold" fill="#39ff14" letter-spacing="2">OPEN</text>
    <animate attributeName="opacity" values="1;0.5;1" dur="3s" repeatCount="indefinite"/>
  </g>

  <!-- Neon circle sign -->
  <circle cx="880" cy="480" r="18" fill="none" stroke="#ffe44d" stroke-width="2.5" filter="url(#glow-yellow)" opacity="0.8"/>
  <circle cx="880" cy="480" r="10" fill="none" stroke="#ffe44d" stroke-width="1.5" filter="url(#glow-yellow)" opacity="0.6"/>

  <!-- Neon triangle sign -->
  <polygon points="420,490 440,460 460,490" fill="none" stroke="#d300c5" stroke-width="2" filter="url(#glow-purple)" opacity="0.8"/>

  <!-- Neon cross/plus -->
  <g transform="translate(310, 540)" filter="url(#glow-cyan)" opacity="0.7">
    <line x1="0" y1="-10" x2="0" y2="10" stroke="#05d9e8" stroke-width="3"/>
    <line x1="-10" y1="0" x2="10" y2="0" stroke="#05d9e8" stroke-width="3"/>
  </g>

  <!-- Vertical neon sign strips on building edges -->
  <g filter="url(#glow-pink)" opacity="0.6">
    <rect x="138" y="460" width="3" height="60" fill="#ff2a6d" rx="1"/>
    <rect x="231" y="460" width="3" height="60" fill="#ff2a6d" rx="1"/>
  </g>
  <g filter="url(#glow-cyan)" opacity="0.5">
    <rect x="608" y="430" width="3" height="70" fill="#05d9e8" rx="1"/>
    <rect x="682" y="430" width="3" height="70" fill="#05d9e8" rx="1"/>
  </g>

  <!-- === GROUND / ROAD === -->
  <rect x="0" y="700" width="1000" height="120" fill="url(#road)"/>

  <!-- Sidewalk lines (neon-edged) -->
  <line x1="0" y1="698" x2="1000" y2="698" stroke="#05d9e8" stroke-width="1" filter="url(#glow-soft)" opacity="0.3"/>
  <line x1="0" y1="822" x2="1000" y2="822" stroke="#ff2a6d" stroke-width="1" filter="url(#glow-soft)" opacity="0.25"/>

  <!-- Road center dashes -->
  <g stroke="#ffe44d" stroke-width="2" stroke-dasharray="25,18" filter="url(#glow-soft)" opacity="0.4">
    <line x1="0" y1="760" x2="1000" y2="760"/>
  </g>

  <!-- === WET ROAD REFLECTIONS === -->
  <rect x="0" y="825" width="1000" height="175" fill="#050510"/>

  <!-- Pink reflections -->
  <g opacity="0.12">
    <rect x="140" y="830" width="100" height="120" fill="#ff2a6d" rx="2"/>
    <rect x="360" y="835" width="100" height="100" fill="#ff2a6d" rx="2"/>
    <rect x="845" y="830" width="80" height="110" fill="#ff2a6d" rx="2"/>
  </g>
  <!-- Cyan reflections -->
  <g opacity="0.1">
    <rect x="0" y="835" width="70" height="100" fill="#05d9e8" rx="2"/>
    <rect x="490" y="830" width="90" height="110" fill="#05d9e8" rx="2"/>
    <rect x="610" y="835" width="70" height="100" fill="#05d9e8" rx="2"/>
  </g>
  <!-- Purple reflections -->
  <g opacity="0.08">
    <rect x="250" y="835" width="80" height="90" fill="#d300c5" rx="2"/>
    <rect x="710" y="830" width="100" height="100" fill="#d300c5" rx="2"/>
  </g>
  <!-- Reflection streaks (vertical lines in puddles) -->
  <g stroke="#ff2a6d" stroke-width="1" opacity="0.06">
    <line x1="160" y1="840" x2="160" y2="960"/><line x1="180" y1="840" x2="180" y2="950"/>
    <line x1="200" y1="845" x2="200" y2="940"/><line x1="220" y1="840" x2="220" y2="955"/>
    <line x1="380" y1="840" x2="380" y2="945"/><line x1="400" y1="842" x2="400" y2="940"/>
    <line x1="420" y1="840" x2="420" y2="950"/><line x1="440" y1="838" x2="440" y2="935"/>
  </g>
  <g stroke="#05d9e8" stroke-width="1" opacity="0.05">
    <line x1="20" y1="840" x2="20" y2="950"/><line x1="40" y1="842" x2="40" y2="945"/>
    <line x1="510" y1="838" x2="510" y2="950"/><line x1="530" y1="840" x2="530" y2="940"/>
    <line x1="550" y1="842" x2="550" y2="945"/><line x1="630" y1="840" x2="630" y2="950"/>
    <line x1="650" y1="838" x2="650" y2="940"/>
  </g>

  <!-- === NEON-LIT CARS === -->
  <!-- Car 1 - cyan underglow, moving right -->
  <g id="car-1">
    <rect x="0" y="0" width="55" height="20" fill="#0a0a18" rx="7" stroke="#05d9e8" stroke-width="1"/>
    <rect x="10" y="-10" width="32" height="14" fill="#08080f" rx="5" stroke="#05d9e8" stroke-width="0.5" opacity="0.6"/>
    <!-- Underglow -->
    <ellipse cx="28" cy="24" rx="30" ry="6" fill="#05d9e8" opacity="0.15" filter="url(#glow-soft)"/>
    <!-- Headlights -->
    <circle cx="57" cy="7" r="3" fill="#fff8c4" filter="url(#glow-soft)"/>
    <circle cx="57" cy="15" r="3" fill="#fff8c4" filter="url(#glow-soft)"/>
    <!-- Taillights -->
    <circle cx="-2" cy="7" r="2.5" fill="#ff2a6d" filter="url(#glow-soft)" opacity="0.9"/>
    <circle cx="-2" cy="15" r="2.5" fill="#ff2a6d" filter="url(#glow-soft)" opacity="0.9"/>
    <!-- Wheels -->
    <circle cx="14" cy="22" r="5" fill="#0a0a14" stroke="#1a1a2a" stroke-width="1"/>
    <circle cx="44" cy="22" r="5" fill="#0a0a14" stroke="#1a1a2a" stroke-width="1"/>
    <animateTransform attributeName="transform" type="translate" values="-80,735;1050,735" dur="9s" repeatCount="indefinite"/>
  </g>

  <!-- Car 2 - pink underglow, moving left -->
  <g id="car-2">
    <rect x="0" y="0" width="50" height="18" fill="#0a0a18" rx="6" stroke="#ff2a6d" stroke-width="1"/>
    <rect x="8" y="-9" width="30" height="12" fill="#08080f" rx="4" stroke="#ff2a6d" stroke-width="0.5" opacity="0.6"/>
    <!-- Underglow -->
    <ellipse cx="25" cy="22" rx="28" ry="5" fill="#ff2a6d" opacity="0.15" filter="url(#glow-soft)"/>
    <!-- Headlights -->
    <circle cx="-3" cy="6" r="3" fill="#fff8c4" filter="url(#glow-soft)"/>
    <circle cx="-3" cy="13" r="3" fill="#fff8c4" filter="url(#glow-soft)"/>
    <!-- Taillights -->
    <circle cx="52" cy="6" r="2.5" fill="#ff2a6d" filter="url(#glow-soft)" opacity="0.9"/>
    <circle cx="52" cy="13" r="2.5" fill="#ff2a6d" filter="url(#glow-soft)" opacity="0.9"/>
    <circle cx="11" cy="20" r="4.5" fill="#0a0a14" stroke="#1a1a2a" stroke-width="1"/>
    <circle cx="40" cy="20" r="4.5" fill="#0a0a14" stroke="#1a1a2a" stroke-width="1"/>
    <animateTransform attributeName="transform" type="translate" values="1050,768;-80,768" dur="11s" repeatCount="indefinite"/>
  </g>

  <!-- Car 3 - purple underglow -->
  <g id="car-3">
    <rect x="0" y="0" width="48" height="18" fill="#0a0a18" rx="6" stroke="#d300c5" stroke-width="1"/>
    <rect x="8" y="-8" width="28" height="11" fill="#08080f" rx="4" stroke="#d300c5" stroke-width="0.5" opacity="0.5"/>
    <ellipse cx="24" cy="22" rx="26" ry="5" fill="#d300c5" opacity="0.12" filter="url(#glow-soft)"/>
    <circle cx="50" cy="6" r="3" fill="#fff8c4" filter="url(#glow-soft)"/>
    <circle cx="50" cy="13" r="3" fill="#fff8c4" filter="url(#glow-soft)"/>
    <circle cx="-2" cy="6" r="2.5" fill="#ff2a6d" filter="url(#glow-soft)" opacity="0.9"/>
    <circle cx="-2" cy="13" r="2.5" fill="#ff2a6d" filter="url(#glow-soft)" opacity="0.9"/>
    <circle cx="12" cy="20" r="4.5" fill="#0a0a14" stroke="#1a1a2a" stroke-width="1"/>
    <circle cx="38" cy="20" r="4.5" fill="#0a0a14" stroke="#1a1a2a" stroke-width="1"/>
    <animateTransform attributeName="transform" type="translate" values="-120,738;1080,738" dur="15s" repeatCount="indefinite"/>
  </g>

  <!-- === STREET LAMPS (neon style) === -->
  <g id="lamp-1">
    <rect x="148" y="610" width="4" height="90" fill="#1a1a2a"/>
    <ellipse cx="150" cy="608" rx="10" ry="3" fill="#1a1a2a"/>
    <circle cx="150" cy="605" r="5" fill="#05d9e8" filter="url(#glow-cyan)" opacity="0.9"/>
    <ellipse cx="150" cy="640" rx="25" ry="40" fill="#05d9e8" opacity="0.03"/>
  </g>
  <g id="lamp-2">
    <rect x="498" y="610" width="4" height="90" fill="#1a1a2a"/>
    <ellipse cx="500" cy="608" rx="10" ry="3" fill="#1a1a2a"/>
    <circle cx="500" cy="605" r="5" fill="#ff2a6d" filter="url(#glow-pink)" opacity="0.9"/>
    <ellipse cx="500" cy="640" rx="25" ry="40" fill="#ff2a6d" opacity="0.03"/>
  </g>
  <g id="lamp-3">
    <rect x="848" y="610" width="4" height="90" fill="#1a1a2a"/>
    <ellipse cx="850" cy="608" rx="10" ry="3" fill="#1a1a2a"/>
    <circle cx="850" cy="605" r="5" fill="#d300c5" filter="url(#glow-purple)" opacity="0.9"/>
    <ellipse cx="850" cy="640" rx="25" ry="40" fill="#d300c5" opacity="0.03"/>
  </g>

  <!-- === LINE-ART PEDESTRIANS with neon edge === -->
  <g id="person-1" transform="translate(200, 690)" filter="url(#glow-soft)">
    <circle cx="0" cy="-28" r="5" fill="none" stroke="#05d9e8" stroke-width="1.5"/>
    <line x1="0" y1="-23" x2="0" y2="-5" stroke="#05d9e8" stroke-width="1.5"/>
    <line x1="0" y1="-5" x2="-5" y2="5" stroke="#05d9e8" stroke-width="1.5"/>
    <line x1="0" y1="-5" x2="5" y2="5" stroke="#05d9e8" stroke-width="1.5"/>
    <line x1="0" y1="-18" x2="-6" y2="-10" stroke="#05d9e8" stroke-width="1.5"/>
    <line x1="0" y1="-18" x2="6" y2="-12" stroke="#05d9e8" stroke-width="1.5"/>
  </g>
  <g id="person-2" transform="translate(560, 690)" filter="url(#glow-soft)">
    <circle cx="0" cy="-28" r="5" fill="none" stroke="#ff2a6d" stroke-width="1.5"/>
    <line x1="0" y1="-23" x2="0" y2="-5" stroke="#ff2a6d" stroke-width="1.5"/>
    <line x1="0" y1="-5" x2="-4" y2="5" stroke="#ff2a6d" stroke-width="1.5"/>
    <line x1="0" y1="-5" x2="4" y2="5" stroke="#ff2a6d" stroke-width="1.5"/>
    <line x1="0" y1="-18" x2="-5" y2="-11" stroke="#ff2a6d" stroke-width="1.5"/>
    <line x1="0" y1="-18" x2="5" y2="-13" stroke="#ff2a6d" stroke-width="1.5"/>
  </g>
  <g id="person-3" transform="translate(770, 690)" filter="url(#glow-soft)">
    <circle cx="0" cy="-26" r="4.5" fill="none" stroke="#d300c5" stroke-width="1.5"/>
    <line x1="0" y1="-21" x2="0" y2="-5" stroke="#d300c5" stroke-width="1.5"/>
    <line x1="0" y1="-5" x2="-4" y2="5" stroke="#d300c5" stroke-width="1.5"/>
    <line x1="0" y1="-5" x2="4" y2="5" stroke="#d300c5" stroke-width="1.5"/>
    <line x1="0" y1="-16" x2="6" y2="-10" stroke="#d300c5" stroke-width="1.5"/>
  </g>
  <g id="person-4" transform="translate(785, 690)" filter="url(#glow-soft)">
    <circle cx="0" cy="-30" r="5" fill="none" stroke="#d300c5" stroke-width="1.5"/>
    <line x1="0" y1="-25" x2="0" y2="-5" stroke="#d300c5" stroke-width="1.5"/>
    <line x1="0" y1="-5" x2="-5" y2="5" stroke="#d300c5" stroke-width="1.5"/>
    <line x1="0" y1="-5" x2="5" y2="5" stroke="#d300c5" stroke-width="1.5"/>
    <line x1="0" y1="-18" x2="-6" y2="-12" stroke="#d300c5" stroke-width="1.5"/>
  </g>

  <!-- === ATMOSPHERIC PARTICLES (floating neon dust) === -->
  <g opacity="0.3">
    <circle cx="120" cy="300" r="1.5" fill="#ff2a6d">
      <animate attributeName="cy" values="300;280;300" dur="6s" repeatCount="indefinite"/>
      <animate attributeName="opacity" values="0.3;0.1;0.3" dur="6s" repeatCount="indefinite"/>
    </circle>
    <circle cx="350" cy="250" r="1" fill="#05d9e8">
      <animate attributeName="cy" values="250;230;250" dur="5s" repeatCount="indefinite"/>
      <animate attributeName="opacity" values="0.2;0.05;0.2" dur="5s" repeatCount="indefinite"/>
    </circle>
    <circle cx="550" cy="350" r="1.5" fill="#d300c5">
      <animate attributeName="cy" values="350;330;350" dur="7s" repeatCount="indefinite"/>
      <animate attributeName="opacity" values="0.25;0.08;0.25" dur="7s" repeatCount="indefinite"/>
    </circle>
    <circle cx="750" cy="280" r="1" fill="#ffe44d">
      <animate attributeName="cy" values="280;260;280" dur="5.5s" repeatCount="indefinite"/>
      <animate attributeName="opacity" values="0.2;0.05;0.2" dur="5.5s" repeatCount="indefinite"/>
    </circle>
    <circle cx="900" cy="320" r="1.5" fill="#ff2a6d">
      <animate attributeName="cy" values="320;300;320" dur="6.5s" repeatCount="indefinite"/>
      <animate attributeName="opacity" values="0.3;0.1;0.3" dur="6.5s" repeatCount="indefinite"/>
    </circle>
    <circle cx="450" cy="180" r="1" fill="#05d9e8">
      <animate attributeName="cy" values="180;165;180" dur="4.5s" repeatCount="indefinite"/>
    </circle>
    <circle cx="680" cy="400" r="1" fill="#39ff14">
      <animate attributeName="cy" values="400;385;400" dur="8s" repeatCount="indefinite"/>
      <animate attributeName="opacity" values="0.15;0.05;0.15" dur="8s" repeatCount="indefinite"/>
    </circle>
  </g>

  <!-- Stars (very few, washed out by city light) -->
  <circle cx="100" cy="30" r="1" fill="white" opacity="0.2"/>
  <circle cx="300" cy="50" r="1" fill="white" opacity="0.15"/>
  <circle cx="550" cy="25" r="1" fill="white" opacity="0.2"/>
  <circle cx="780" cy="40" r="1" fill="white" opacity="0.15"/>
</svg>
