<svg viewBox="0 0 1000 1000" xmlns="http://www.w3.org/2000/svg">
  <defs>
    <linearGradient id="sky" x1="0" y1="0" x2="0" y2="1">
      <stop offset="0%" stop-color="#87CEEB"/>
      <stop offset="100%" stop-color="#d4eeff"/>
    </linearGradient>
    <linearGradient id="ground" x1="0" y1="0" x2="0" y2="1">
      <stop offset="0%" stop-color="#6ab04c"/>
      <stop offset="100%" stop-color="#4a8a2c"/>
    </linearGradient>
    <radialGradient id="pip-body" cx="50%" cy="40%" r="60%">
      <stop offset="0%" stop-color="#2a2a5e"/>
      <stop offset="100%" stop-color="#1a1a3e"/>
    </radialGradient>
    <radialGradient id="pip-belly" cx="50%" cy="35%" r="60%">
      <stop offset="0%" stop-color="#ffffff"/>
      <stop offset="100%" stop-color="#dde0f0"/>
    </radialGradient>
    <radialGradient id="pip-face" cx="50%" cy="40%" r="55%">
      <stop offset="0%" stop-color="#ffffff"/>
      <stop offset="100%" stop-color="#e8e8f5"/>
    </radialGradient>
  </defs>

  <!-- Sky -->
  <rect width="1000" height="600" fill="url(#sky)"/>

  <!-- Ground -->
  <rect x="0" y="600" width="1000" height="400" fill="url(#ground)"/>
  <ellipse cx="500" cy="610" rx="500" ry="20" fill="#7ac05c"/>

  <!-- Clouds -->
  <g opacity="0.6">
    <ellipse cx="200" cy="120" rx="70" ry="25" fill="white"/>
    <ellipse cx="170" cy="115" rx="40" ry="20" fill="white"/>
    <ellipse cx="240" cy="118" rx="35" ry="18" fill="white"/>
  </g>
  <g opacity="0.4">
    <ellipse cx="700" cy="160" rx="55" ry="20" fill="white"/>
    <ellipse cx="730" cy="155" rx="35" ry="16" fill="white"/>
  </g>

  <!-- Penguin centered -->
  <g id="penguin-1" transform="translate(500, 700)">
    <ellipse cx="0" cy="-60" rx="55" ry="68" fill="url(#pip-body)"/>
    <ellipse cx="0" cy="-42" rx="37" ry="52" fill="url(#pip-belly)"/>
    <circle cx="0" cy="-145" r="42" fill="url(#pip-body)"/>
    <circle cx="0" cy="-141" r="30" fill="url(#pip-face)"/>
    <circle cx="-12" cy="-148" r="8" fill="#1a1a3e"/>
    <circle cx="-9" cy="-150" r="3" fill="white"/>
    <circle cx="12" cy="-148" r="8" fill="#1a1a3e"/>
    <circle cx="15" cy="-150" r="3" fill="white"/>
    <polygon points="-6,-134 6,-134 0,-124" fill="#ff8c00"/>
    <ellipse cx="-62" cy="-65" rx="14" ry="35" fill="#1a1a3e" transform="rotate(12, -62, -65)"/>
    <ellipse cx="62" cy="-65" rx="14" ry="35" fill="#1a1a3e" transform="rotate(-12, 62, -65)"/>
    <ellipse cx="-18" cy="2" rx="16" ry="8" fill="#ff8c00"/>
    <ellipse cx="18" cy="2" rx="16" ry="8" fill="#ff8c00"/>
    <circle cx="-22" cy="-132" r="7" fill="#ffb3b3" opacity="0.4"/>
    <circle cx="22" cy="-132" r="7" fill="#ffb3b3" opacity="0.4"/>
  </g>
</svg>
